<?xml version="1.0"?>
<!--
*************Map created by Simplemaps.com********************		
*************Attribution is highly appreciated!***************
*************http://simplemaps.com****************************

The MIT License (MIT)

Copyright (c) 2020 Pareto Softare, LLC DBA Simplemaps.com

Permission is hereby granted, free of charge, to any person obtaining a copy
of this software and associated documentation files (the "Software"), to deal
in the Software without restriction, including without limitation the rights
to use, copy, modify, merge, publish, distribute, sublicense, and/or sell
copies of the Software, and to permit persons to whom the Software is
furnished to do so, subject to the following conditions:

The above copyright notice and this permission notice shall be included in
all copies or substantial portions of the Software.

THE SOFTWARE IS PROVIDED "AS IS", WITHOUT WARRANTY OF ANY KIND, EXPRESS OR
IMPLIED, INCLUDING BUT NOT LIMITED TO THE WARRANTIES OF MERCHANTABILITY,
FITNESS FOR A PARTICULAR PURPOSE AND NONINFRINGEMENT. IN NO EVENT SHALL THE
AUTHORS OR COPYRIGHT HOLDERS BE LIABLE FOR ANY CLAIM, DAMAGES OR OTHER
LIABILITY, WHETHER IN AN ACTION OF CONTRACT, TORT OR OTHERWISE, ARISING FROM,
OUT OF OR IN CONNECTION WITH THE SOFTWARE OR THE USE OR OTHER DEALINGS IN
THE SOFTWARE.

-->
<!--
not classified fill="#b1b1b1"
classified fill="#326295"
-->
<svg baseprofile="tiny" fill="#ececec" height="857" stroke="black" stroke-linecap="round" stroke-linejoin="round" stroke-width=".2" version="1.2" viewbox="0 0 2000 857" width="2000" xmlns="http://www.w3.org/2000/svg">

 <!--
<path class="United Kingdom" d="M 972.6 129.5 967.5 136 972.2 135.2 977.3 135.2 976 140.1 971.7 145.5 976.6 145.8 976.9 146.5 981.1 153.6 984.3 154.6 987.2 161.6 988.6 164 994.5 165.1 993.9 169.1 991.5 170.9 993.4 174.1 989 177.3 982.5 177.2 974.1 179 971.9 177.7 968.6 180.6 964.1 179.9 960.5 182.3 958 181.1 965.3 174.6 969.7 173.2 962.1 172.2 960.8 169.7 965.9 167.8 963.4 164.5 964.4 160.5 971.5 161.1 972.3 157.5 969.2 153.8 969.1 153.7 963.4 152.6 962.3 151 964.1 148.3 962.6 146.6 960 149.5 959.9 143.6 957.7 140.6 959.6 134.4 963.4 129.6 967 130 972.6 129.5 Z" fill="#326295">
</path>
-->
<path class="Wales" d="M 969.7 173.2 962.1 172.2 960.8 169.7 965.9 167.8 963.4 164.5 964.4 160.5 971.5 161.1 969.7 173.2 Z" fill="#b1ff94">
</path>
<path class="Scotland" d="M 969.2 153.8 969.1 153.7 963.4 152.6 962.3 151 964.1 148.3 962.6 146.6 960 149.5 959.9 143.6 957.7 140.6 959.6 134.4 963.4 129.6 967 130 972.6 129.5 972.6 129.5 967.5 136 972.2 135.2 977.3 135.2 976 140.1 971.7 145.5 969.2 153.8 Z" fill="#94fffc">
</path>
<path class="England" d="M 976.6 145.8 976.9 146.5 981.1 153.6 984.3 154.6 987.2 161.6 988.6 164 994.5 165.1 993.9 169.1 991.5 170.9 993.4 174.1 989 177.3 982.5 177.2 974.1 179 971.9 177.7 968.6 180.6 964.1 179.9 960.5 182.3 958 181.1 965.3 174.6 971.5 161.1 972.3 157.5 976.6 145.8 Z" fill="#326295">
</path>
<!--
Start GB 972.6 129.5
Start EN 976.6 145.8
Start WA 969.7 173.2  #b1ff94
End   WA 971.5 161.1
Start SC 969.2 153.8
-->
 <circle r="1.0" cx="972.6" cy="129.5" id="0" fill="red">
 </circle>
 <circle r="1.0" cx="976.6" cy="145.8" id="1" fill="blue">
 </circle>
 <circle r="1.0" cx="969.7" cy="173.2" id="2" fill="green">
 </circle>
 <circle r="1.0" cx="971.5" cy="161.1" id="3" fill="yellow">
 </circle>
 <circle r="1.0" cx="969.2" cy="153.8" id="4" fill="purple">
 </circle>
</svg>
